<svg width="34" height="34" viewBox="0 0 34 34" fill="none" xmlns="http://www.w3.org/2000/svg">
<path d="M16.9643 19.8214C26.3286 19.8214 33.9286 23.2792 33.9286 27.5298V33.0357H0V27.5298C0 23.2792 7.6 19.8214 16.9643 19.8214ZM31.6667 27.5298C31.6667 24.4905 25.0845 22.0238 16.9643 22.0238C8.84405 22.0238 2.2619 24.4905 2.2619 27.5298V30.8333H31.6667V27.5298ZM16.9643 0C19.0639 0 21.0776 0.812126 22.5622 2.25772C24.0469 3.70331 24.881 5.66396 24.881 7.70833C24.881 9.75271 24.0469 11.7134 22.5622 13.1589C21.0776 14.6045 19.0639 15.4167 16.9643 15.4167C14.8647 15.4167 12.851 14.6045 11.3664 13.1589C9.88169 11.7134 9.04762 9.75271 9.04762 7.70833C9.04762 5.66396 9.88169 3.70331 11.3664 2.25772C12.851 0.812126 14.8647 0 16.9643 0ZM16.9643 2.20238C15.4645 2.20238 14.0262 2.78247 12.9658 3.81504C11.9053 4.8476 11.3095 6.24806 11.3095 7.70833C11.3095 9.1686 11.9053 10.5691 12.9658 11.6016C14.0262 12.6342 15.4645 13.2143 16.9643 13.2143C18.464 13.2143 19.9023 12.6342 20.9628 11.6016C22.0233 10.5691 22.619 9.1686 22.619 7.70833C22.619 6.24806 22.0233 4.8476 20.9628 3.81504C19.9023 2.78247 18.464 2.20238 16.9643 2.20238Z" fill="black"/>
</svg>
