<svg width="40" height="40" viewBox="0 0 40 40" fill="none" xmlns="http://www.w3.org/2000/svg">
<path d="M32.666 13.25H7.33398C7.20138 13.25 7.0742 13.1973 6.98043 13.1036C6.88666 13.0098 6.83398 12.8826 6.83398 12.75C6.83398 12.6174 6.88666 12.4902 6.98043 12.3964C7.0742 12.3027 7.20138 12.25 7.33398 12.25H32.666C32.7986 12.25 32.9258 12.3027 33.0195 12.3964C33.1133 12.4902 33.166 12.6174 33.166 12.75C33.166 12.8826 33.1133 13.0098 33.0195 13.1036C32.9258 13.1973 32.7986 13.25 32.666 13.25ZM32.666 20.5H7.33398C7.20138 20.5 7.0742 20.4473 6.98043 20.3536C6.88666 20.2598 6.83398 20.1326 6.83398 20C6.83398 19.8674 6.88666 19.7402 6.98043 19.6464C7.0742 19.5527 7.20138 19.5 7.33398 19.5H32.666C32.7986 19.5 32.9258 19.5527 33.0195 19.6464C33.1133 19.7402 33.166 19.8674 33.166 20C33.166 20.1326 33.1133 20.2598 33.0195 20.3536C32.9258 20.4473 32.7986 20.5 32.666 20.5ZM32.666 27.75H7.33398C7.20138 27.75 7.0742 27.6973 6.98043 27.6036C6.88666 27.5098 6.83398 27.3826 6.83398 27.25C6.83398 27.1174 6.88666 26.9902 6.98043 26.8964C7.0742 26.8027 7.20138 26.75 7.33398 26.75H32.666C32.7986 26.75 32.9258 26.8027 33.0195 26.8964C33.1133 26.9902 33.166 27.1174 33.166 27.25C33.166 27.3826 33.1133 27.5098 33.0195 27.6036C32.9258 27.6973 32.7986 27.75 32.666 27.75Z" fill="black"/>
</svg>
