<svg width="20" height="20" viewBox="0 0 20 20" fill="none" xmlns="http://www.w3.org/2000/svg">
<g clip-path="url(#clip0_634_836)">
<path d="M1.56673 0.0626678C0.867509 0.250168 0.242509 0.879074 0.0589148 1.5822C0.00813353 1.78532 0.000321026 2.77361 0.000321026 10.0002C0.000321026 19.0314 -0.0192102 18.3869 0.246415 18.883C0.406571 19.1877 0.812821 19.5939 1.11751 19.7541C1.6136 20.0197 0.969072 20.0002 10.0003 20.0002C19.0316 20.0002 18.387 20.0197 18.8831 19.7541C19.1878 19.5939 19.5941 19.1877 19.7542 18.883C20.0199 18.3869 20.0003 19.0314 20.0003 10.0002C20.0003 0.968918 20.0199 1.61345 19.7542 1.11736C19.5941 0.812668 19.1878 0.406418 18.8831 0.246262C18.387 -0.0193634 19.0355 0.000167847 9.98079 0.0040741C2.94563 0.0040741 1.74642 0.0118866 1.56673 0.0626678ZM12.7777 3.20329C12.8128 3.63689 12.9066 3.9572 13.1214 4.3947C13.6488 5.4611 14.6605 6.15251 15.8558 6.2736L16.1331 6.30095V7.49626V8.69548L15.8909 8.68376C14.887 8.62907 13.887 8.31267 13.0745 7.78923C12.93 7.69548 12.7933 7.61735 12.7738 7.61735C12.7542 7.61735 12.7347 8.75798 12.7269 10.4767C12.7152 13.2892 12.7113 13.3439 12.6253 13.6447C12.3909 14.4845 12.0433 15.0978 11.4652 15.6877C10.0159 17.1681 7.87923 17.4767 6.07063 16.465C5.25813 16.0119 4.53548 15.1916 4.16048 14.3049C3.59407 12.965 3.71907 11.4728 4.49642 10.2111C4.78157 9.74626 5.44563 9.07829 5.90267 8.79704C6.28548 8.56267 6.76595 8.35564 7.21517 8.23845C7.46126 8.16814 7.64485 8.15251 8.18392 8.1486L8.84798 8.1447L8.8597 9.37126L8.86751 10.5939L8.78157 10.5705C8.73079 10.5588 8.55892 10.5353 8.39876 10.5236C8.03157 10.4924 7.5472 10.6017 7.23079 10.7931C6.07063 11.4806 5.8636 13.09 6.81673 14.0431C7.89876 15.1252 9.72298 14.6994 10.2425 13.2424L10.3324 12.9884L10.3441 7.93767L10.3519 2.89079L11.555 2.89861L12.7542 2.91032L12.7777 3.20329Z" fill="white"/>
</g>
<defs>
<clipPath id="clip0_634_836">
<rect width="20" height="20" fill="white"/>
</clipPath>
</defs>
</svg>
