<svg width="20" height="20" viewBox="0 0 20 20" fill="none" xmlns="http://www.w3.org/2000/svg">
<g clip-path="url(#clip0_634_839)">
<path d="M13.0273 1.93754C11.7812 2.21489 10.793 2.95707 10.2031 4.06254C9.79687 4.82036 9.64062 5.8477 9.78906 6.72661L9.8164 6.87504H9.66406C9.57812 6.87504 9.28906 6.8477 9.02344 6.81645C6.48437 6.50395 4.16016 5.38676 2.33203 3.5977C2.07812 3.35161 1.77344 3.02739 1.65234 2.88286C1.52734 2.73832 1.41406 2.61723 1.39844 2.61723C1.29687 2.61723 0.96875 3.48832 0.882812 3.98051C0.617187 5.52739 1.21484 7.0352 2.47656 8.00004L2.58984 8.08598L2.39844 8.06254C1.90234 8.00786 1.35547 7.8477 0.976562 7.65629C0.890625 7.61332 0.8125 7.57817 0.796875 7.57817C0.78125 7.57817 0.78125 7.73442 0.792969 7.92192C0.878906 9.14067 1.47266 10.2266 2.44141 10.9493C2.81641 11.2305 3.19141 11.4219 3.62891 11.5664L3.95703 11.6719L3.73047 11.7188C3.46484 11.7735 2.67578 11.7891 2.41406 11.7461C2.28125 11.7227 2.22656 11.7266 2.22656 11.7579C2.22656 11.8711 2.49219 12.4258 2.70312 12.7422C3.37109 13.7618 4.51172 14.461 5.71094 14.5899L5.97656 14.6172L5.80078 14.7539C5.03906 15.3321 3.86328 15.8672 2.79297 16.1133C2.10156 16.2735 0.960937 16.3594 0.34375 16.3008C0.152344 16.2813 0 16.2774 0 16.293C0 16.3086 0.199219 16.4336 0.441406 16.5743C1.92969 17.4336 3.39062 17.9024 5.1875 18.0899C5.74219 18.1485 7.48828 18.1133 8.00781 18.0352C10.2539 17.6875 12.0312 16.9258 13.6367 15.6172C16.3008 13.4493 17.9648 9.95317 17.9687 6.51567V5.94536L18.3164 5.66801C18.7578 5.31254 19.4531 4.58989 19.7656 4.1602C19.8984 3.97661 20 3.81645 19.9883 3.80473C19.9805 3.79301 19.8398 3.83598 19.6836 3.89848C19.3633 4.02739 18.8359 4.19145 18.5352 4.25786C18.1953 4.33598 17.7656 4.40629 17.8008 4.37895C17.8164 4.36332 17.9336 4.27739 18.0547 4.18364C18.3398 3.96879 18.7656 3.51957 18.957 3.23051C19.1211 2.98832 19.3906 2.43364 19.4336 2.25786C19.4609 2.15239 19.4492 2.15629 18.9375 2.41411C18.4219 2.67582 17.7148 2.93754 17.1406 3.07817L16.8437 3.15629L16.6719 2.98051C16.2891 2.58989 15.5117 2.15629 14.9023 1.99223C14.4766 1.87895 13.4336 1.8477 13.0273 1.93754Z" fill="white"/>
</g>
<defs>
<clipPath id="clip0_634_839">
<rect width="20" height="20" fill="white"/>
</clipPath>
</defs>
</svg>
