<svg width="49" height="47" viewBox="0 0 49 47" fill="none" xmlns="http://www.w3.org/2000/svg">
<path d="M48 23.5C48 11.0781 37.474 1 24.5 1C11.526 1 1 11.0781 1 23.5C1 35.9219 11.526 46 24.5 46C37.474 46 48 35.9219 48 23.5Z" stroke="#253F3C" stroke-width="2" stroke-miterlimit="10"/>
<path d="M19.622 32V15.9H25.648C27.0127 15.9 28.1857 16.1223 29.167 16.567C30.1483 16.9963 30.8997 17.625 31.421 18.453C31.9577 19.2657 32.226 20.2547 32.226 21.42C32.226 22.5547 31.9577 23.536 31.421 24.364C30.8997 25.1767 30.1483 25.8053 29.167 26.25C28.1857 26.6947 27.0127 26.917 25.648 26.917H20.565L21.324 26.112V32H19.622ZM21.324 26.25L20.565 25.422H25.602C27.212 25.422 28.431 25.077 29.259 24.387C30.1023 23.6817 30.524 22.6927 30.524 21.42C30.524 20.132 30.1023 19.1353 29.259 18.43C28.431 17.7247 27.212 17.372 25.602 17.372H20.565L21.324 16.567V26.25Z" fill="#253F3C"/>
</svg>
