<svg width="47" height="45" viewBox="0 0 47 45" fill="none" xmlns="http://www.w3.org/2000/svg">
<path d="M41.3731 4.57147C41.0809 4.65586 40.8022 4.75631 40.5375 4.87321C40.5899 4.80072 40.6419 4.69238 40.6394 4.55204C40.637 4.41451 40.5833 4.30978 40.5303 4.23984C40.7987 4.35432 41.0796 4.46483 41.3731 4.57147ZM41.3731 4.57147C41.4085 4.56123 41.4442 4.55123 41.48 4.54146L41.6724 4.4371L41.6741 4.43615L41.9122 4.30698C41.879 4.24655 41.8256 4.20109 41.7624 4.17937C41.38 4.04585 41.0201 3.90642 40.6825 3.76108C39.6651 3.32152 38.3986 2.21908 37.8612 1.33286" fill="white" stroke="white"/>
<path d="M31.2852 2.05243C31.3059 2.12805 31.3225 2.13042 31.3352 2.05952L31.4127 2.59834C31.4195 2.64272 31.4353 2.68502 31.4592 2.7224C31.5281 2.83111 31.5131 2.9091 31.4144 2.95636C31.4086 2.96818 31.4029 2.97941 31.3972 2.99004L30.3259 2.92446C30.2814 2.92191 30.2377 2.93695 30.2035 2.96656C30.1693 2.99616 30.1472 3.03813 30.1416 3.08398C29.9297 4.8883 29.2046 6.79011 27.9576 8.04676C25.8012 10.218 22.0241 10.3651 19.6179 8.53063C18.0265 7.31829 17.1412 5.12758 16.8845 3.08752C16.8781 3.0362 16.8532 2.98926 16.8149 2.95608C16.7766 2.92289 16.7276 2.90591 16.6778 2.90851C15.3023 2.9865 13.906 3.24291 12.4891 3.67774C11.6434 3.93651 10.8063 4.37962 10.0829 4.87058C8.08727 6.22589 6.02733 7.98118 3.90308 10.1364C3.87669 10.1632 3.861 10.1991 3.85908 10.2372C3.85717 10.2752 3.86918 10.3126 3.89274 10.342L8.90137 16.5438C8.92235 16.5703 8.95236 16.5876 8.98531 16.5922C9.01826 16.5969 9.05168 16.5884 9.07878 16.5686L12.4133 14.1209C12.4251 14.112 12.439 14.1068 12.4535 14.1056C12.468 14.1044 12.4826 14.1074 12.4956 14.1141C12.5086 14.1209 12.5195 14.1312 12.5272 14.144C12.5348 14.1568 12.5389 14.1714 12.539 14.1864L12.5373 31.4179C12.5372 31.4466 12.5478 31.4743 12.5667 31.495C12.5856 31.5158 12.6115 31.5282 12.6389 31.5296C15.9166 31.7033 19.2734 31.5154 22.3461 30.5973C23.5484 30.2375 24.7006 29.6437 25.92 29.314C28.5277 28.611 31.3283 28.3221 34.3217 28.4473C34.3452 28.4483 34.3685 28.4444 34.3904 28.4359C34.4124 28.4275 34.4324 28.4145 34.4492 28.398C34.4661 28.3814 34.4796 28.3616 34.4887 28.3396C34.4979 28.3176 34.5026 28.294 34.5026 28.2701V14.1439C34.5027 14.1328 34.5058 14.1221 34.5115 14.1127C34.5173 14.1034 34.5254 14.0958 34.5349 14.0909C34.5445 14.0859 34.5553 14.0838 34.566 14.0847C34.5767 14.0856 34.5869 14.0895 34.5956 14.096L37.8509 16.5118C37.9035 16.5509 37.9686 16.5678 38.0332 16.5593C38.0977 16.5507 38.1569 16.5173 38.1988 16.4658L43.1557 10.3031C43.172 10.2829 43.18 10.257 43.1781 10.2309C43.1761 10.2048 43.1644 10.1804 43.1454 10.163L40.6359 7.85357C40.644 7.81575 40.6572 7.78739 40.6755 7.76849C40.6928 7.75076 40.7197 7.74368 40.7565 7.74722C41.0768 7.78385 41.3938 7.74131 41.7072 7.61961C41.8037 7.7295 41.8944 7.79921 41.9794 7.82875C42.5409 8.34512 43.0932 8.84258 43.6363 9.32113C44.0341 9.67207 44.3958 10.2162 44.0186 10.6859C42.2572 12.8731 40.4958 15.0596 38.7344 17.2456C38.3923 17.671 38.0013 17.7248 37.5615 17.4069L35.4413 15.8702C35.4356 15.8664 35.4291 15.8643 35.4223 15.864C35.4156 15.8636 35.4088 15.8652 35.4029 15.8684C35.3969 15.8717 35.3919 15.8765 35.3883 15.8825C35.3848 15.8884 35.3828 15.8952 35.3827 15.9021L35.381 28.3605C35.3809 28.3943 35.3933 28.4268 35.4157 28.4515C35.4381 28.4762 35.4688 28.4912 35.5016 28.4934C38.4847 28.7002 41.3696 29.151 44.1564 29.8458C44.2138 29.86 44.2489 29.8375 44.2615 29.7784L46.132 20.4962C46.1561 20.3769 46.2261 20.3308 46.3421 20.358L46.8691 20.4803C46.9736 20.5051 47.0155 20.5719 46.9949 20.6806C45.6193 27.6521 44.1524 34.9958 42.5942 42.7118C42.2997 44.1687 41.4093 45 39.8677 44.9982C28.8848 44.9935 17.9834 44.9941 7.16351 45C5.74428 45.0018 4.73153 44.2219 4.4594 42.8607C2.90238 35.0963 1.41713 27.6881 0.00364738 20.6363C-0.0101315 20.5689 0.0151296 20.527 0.0794311 20.5104L0.733929 20.3421C0.750767 20.3377 0.768304 20.3368 0.785491 20.3397C0.802677 20.3425 0.81916 20.3489 0.833953 20.3585C0.848746 20.3681 0.861546 20.3807 0.871587 20.3955C0.881627 20.4104 0.888701 20.4271 0.892387 20.4449L2.7801 29.922C2.78937 29.968 2.81117 30.0104 2.84291 30.044C2.87465 30.0776 2.91501 30.101 2.95922 30.1116C5.72649 30.7627 8.56552 31.2088 11.4763 31.4498C11.5934 31.4593 11.652 31.4037 11.652 31.2832L11.6503 15.9908C11.6502 15.9766 11.6464 15.9627 11.6392 15.9505C11.632 15.9384 11.6218 15.9285 11.6095 15.922C11.5973 15.9154 11.5836 15.9124 11.5698 15.9133C11.556 15.9142 11.5428 15.9189 11.5314 15.9269L9.43359 17.4317C9.01448 17.733 8.64187 17.6811 8.31577 17.2758C6.45562 14.9681 4.6856 12.7673 3.00573 10.6735C2.77837 10.3934 2.79043 9.98402 3.04362 9.72347C5.26317 7.43114 7.44368 5.55296 9.58515 4.08894C10.2086 3.6612 10.8413 3.32385 11.4832 3.07689C13.4455 2.31947 15.4194 1.96085 17.4047 2.00103C17.6148 2.00457 17.725 2.11387 17.7354 2.32893C17.8749 5.31191 19.4043 8.43846 22.6527 8.80004C24.897 9.04995 26.9138 8.38884 28.1143 6.35587C28.8687 5.07736 29.2677 3.68069 29.3114 2.16586C29.3137 2.10678 29.343 2.07311 29.3992 2.06484C30.0319 1.97622 30.6606 1.97208 31.2852 2.05243ZM24.1495 30.934C21.5762 32.0276 18.5638 32.4229 15.765 32.469C11.6061 32.5375 7.38914 32.079 3.11424 31.0936C3.0419 31.077 3.01319 31.1054 3.02812 31.1786C3.76184 34.7152 4.49098 38.3847 5.21552 42.1871C5.42565 43.2914 5.88035 44.089 7.06189 44.089C17.6682 44.0925 28.6385 44.0931 39.9728 44.0907C40.9322 44.089 41.5557 43.4491 41.7313 42.5345C42.488 38.6128 43.2625 34.7477 44.0548 30.9394C44.0631 30.9004 44.0562 30.8596 44.0356 30.8258C44.015 30.792 43.9823 30.7679 43.9446 30.7586C41.1452 30.0402 38.2929 29.5876 35.3879 29.4009C31.5539 29.1545 27.6459 29.447 24.1495 30.934Z" fill="white"/>
<path d="M37.9835 7.9847C37.7895 8.38645 37.6661 8.65881 37.6132 8.80179C37.2711 9.71163 36.922 9.71458 36.566 8.81065C36.5063 8.65822 36.3703 8.364 36.1578 7.92798L36.1682 7.85886C36.1751 7.81278 36.2009 7.78973 36.2457 7.78973L37.8613 7.79505C37.9187 7.79623 37.9566 7.824 37.9749 7.87835C37.9876 7.91735 37.9904 7.9528 37.9835 7.9847Z" fill="white"/>
<path d="M36.0355 35.3315C36.0355 35.9816 35.7846 36.6051 35.3379 37.0648C34.8911 37.5245 34.2853 37.7828 33.6535 37.7828C33.0218 37.7828 32.4159 37.5245 31.9692 37.0648C31.5224 36.6051 31.2715 35.9816 31.2715 35.3315C31.2715 34.6814 31.5224 34.0579 31.9692 33.5982C32.4159 33.1385 33.0218 32.8802 33.6535 32.8802C34.2853 32.8802 34.8911 33.1385 35.3379 33.5982C35.7846 34.0579 36.0355 34.6814 36.0355 35.3315ZM35.1468 35.3386C35.1468 34.9325 34.99 34.5429 34.7109 34.2558C34.4319 33.9686 34.0534 33.8072 33.6587 33.8072C33.264 33.8072 32.8855 33.9686 32.6064 34.2558C32.3273 34.5429 32.1706 34.9325 32.1706 35.3386C32.1706 35.7447 32.3273 36.1343 32.6064 36.4214C32.8855 36.7086 33.264 36.87 33.6587 36.87C34.0534 36.87 34.4319 36.7086 34.7109 36.4214C34.99 36.1343 35.1468 35.7447 35.1468 35.3386Z" fill="white"/>
<path d="M12.4236 37.0206C12.4236 37.6115 12.1955 38.1782 11.7895 38.596C11.3835 39.0138 10.8328 39.2485 10.2586 39.2485C9.68444 39.2485 9.13376 39.0138 8.72774 38.596C8.32173 38.1782 8.09363 37.6115 8.09363 37.0206C8.09363 36.4297 8.32173 35.863 8.72774 35.4452C9.13376 35.0274 9.68444 34.7927 10.2586 34.7927C10.8328 34.7927 11.3835 35.0274 11.7895 35.4452C12.1955 35.863 12.4236 36.4297 12.4236 37.0206ZM11.5246 37.0224C11.5246 36.8513 11.4918 36.6819 11.4282 36.5238C11.3646 36.3658 11.2713 36.2222 11.1538 36.1012C11.0362 35.9802 10.8967 35.8843 10.7431 35.8188C10.5895 35.7533 10.4249 35.7196 10.2586 35.7196C10.0924 35.7196 9.92777 35.7533 9.77418 35.8188C9.62059 35.8843 9.48104 35.9802 9.36349 36.1012C9.24593 36.2222 9.15268 36.3658 9.08906 36.5238C9.02545 36.6819 8.9927 36.8513 8.9927 37.0224C8.9927 37.3679 9.12608 37.6992 9.36349 37.9435C9.6009 38.1878 9.92289 38.3251 10.2586 38.3251C10.5944 38.3251 10.9164 38.1878 11.1538 37.9435C11.3912 37.6992 11.5246 37.3679 11.5246 37.0224Z" fill="white"/>
<path d="M24.1529 37.9441C24.1529 38.4024 23.976 38.842 23.6611 39.1661C23.3461 39.4902 22.919 39.6722 22.4736 39.6722C22.0282 39.6722 21.6011 39.4902 21.2862 39.1661C20.9712 38.842 20.7943 38.4024 20.7943 37.9441C20.7943 37.4858 20.9712 37.0462 21.2862 36.7222C21.6011 36.3981 22.0282 36.216 22.4736 36.216C22.919 36.216 23.3461 36.3981 23.6611 36.7222C23.976 37.0462 24.1529 37.4858 24.1529 37.9441ZM23.2642 37.9406C23.2642 37.7262 23.1814 37.5206 23.0341 37.3691C22.8869 37.2175 22.6871 37.1323 22.4788 37.1323C22.2705 37.1323 22.0707 37.2175 21.9234 37.3691C21.7761 37.5206 21.6934 37.7262 21.6934 37.9406C21.6934 38.1549 21.7761 38.3605 21.9234 38.5121C22.0707 38.6636 22.2705 38.7488 22.4788 38.7488C22.6871 38.7488 22.8869 38.6636 23.0341 38.5121C23.1814 38.3605 23.2642 38.1549 23.2642 37.9406Z" fill="white"/>
</svg>
