<svg width="35" height="47" viewBox="0 0 35 47" fill="none" xmlns="http://www.w3.org/2000/svg">
<mask id="path-1-inside-1_963_2640" fill="white">
<path d="M32.212 40.1632C30.2156 37.8441 29.1272 35.145 28.9469 32.0658C28.6896 27.6672 30.3302 23.3628 33.8541 20.6115C33.8883 20.5844 33.9115 20.5461 33.9193 20.5035C33.9272 20.4609 33.9191 20.4169 33.8967 20.3797L30.2964 14.3744C30.283 14.3521 30.2636 14.3338 30.2403 14.3216C30.217 14.3093 30.1906 14.3035 30.1641 14.3049C29.9113 14.3165 29.7275 14.4367 29.4982 14.5251C28.3711 14.9607 27.4371 15.2678 26.6962 15.4465C26.1552 15.5779 25.5691 15.5484 24.9379 15.3582C23.6957 14.9829 22.8372 13.918 22.4123 12.7561C22.0213 11.6878 21.6395 10.692 21.2671 9.76865C21.2034 9.61218 21.0873 9.5296 20.9187 9.52091C20.6452 9.50642 20.3649 9.50738 20.0778 9.5238C19.9484 9.53153 19.8744 9.59866 19.8558 9.72519C19.6422 11.2542 19.3717 12.7488 19.0443 14.2092C19.0002 14.4053 19.0605 14.5579 19.2251 14.6671C20.3086 15.3842 20.8172 16.3115 20.8084 17.6009C20.8045 18.2857 20.5708 18.9256 20.1072 19.5206C19.6397 20.1213 18.9973 20.5207 18.1799 20.7187C17.0509 20.994 15.5484 20.5246 14.834 19.5177C14.0666 18.4398 13.9235 17.3276 14.4047 16.1811C14.7943 15.2538 15.5925 14.5917 16.5569 14.3092C16.6072 14.2943 16.6498 14.261 16.6758 14.2162C16.7018 14.1714 16.7093 14.1186 16.6966 14.0687C16.4594 13.1608 16.2599 12.2157 16.0982 11.2334C15.9404 10.2724 15.7934 9.33691 15.6572 8.42706C15.371 6.51753 15.3279 4.65774 15.5278 2.8477C15.5768 2.4034 15.7072 1.91418 15.9189 1.38006C16.2149 0.635369 16.7382 0.188654 17.4889 0.0399095C17.831 -0.0286674 18.148 -0.00886703 18.4401 0.0993106C19.2898 0.413702 19.6338 1.15114 19.8646 1.98711C20.2674 3.44895 20.2645 5.2165 20.1557 6.65082C20.1077 7.2796 20.0582 7.90259 20.0072 8.51978C20.0058 8.53932 20.0085 8.55893 20.0152 8.57737C20.0219 8.59581 20.0325 8.61267 20.0462 8.62686C20.0599 8.64104 20.0764 8.65225 20.0948 8.65976C20.1131 8.66727 20.1329 8.67091 20.1528 8.67046C20.6732 8.65404 21.1907 8.66659 21.7052 8.70813C21.7487 8.71165 21.7903 8.72728 21.8252 8.75318C21.8601 8.77908 21.8868 8.8142 21.9022 8.85446C22.2815 9.84254 22.6833 10.9151 23.1077 12.0723C23.581 13.3617 24.2029 14.286 25.5862 14.6106C25.9758 14.7018 26.3874 14.6453 26.7638 14.5251C27.9908 14.1291 29.2086 13.7036 30.417 13.2487C30.4625 13.2312 30.5126 13.2292 30.5594 13.2428C30.6062 13.2564 30.6471 13.285 30.6757 13.324C30.8286 13.5336 30.9683 13.7442 31.0947 13.9557C32.3129 15.9956 33.5537 18.0694 34.817 20.1769C34.9772 20.4435 35.136 20.781 34.8096 21.0172C31.4563 23.4439 29.7157 27.3615 29.8128 31.4457C29.8922 34.8253 31.0864 37.7224 33.3954 40.1371C33.418 40.1609 33.4305 40.1923 33.4302 40.2247C33.43 40.2572 33.4169 40.2881 33.3939 40.311L28.1119 45.6411C28.0614 45.6917 27.9973 45.7271 27.9272 45.743C27.8572 45.7589 27.784 45.7547 27.7164 45.731C27.1156 45.5223 26.5413 45.3021 25.9935 45.0703C23.8692 44.1735 21.7302 44.2488 19.7735 45.5397C19.0541 46.014 18.369 46.4819 17.7183 46.9436C17.6682 46.979 17.6083 46.9986 17.5467 46.9999C17.485 47.0012 17.4244 46.9841 17.3728 46.9509C16.4261 46.3322 15.5087 45.6382 14.5032 45.1065C13.039 44.3358 11.1969 44.2778 9.70773 44.8197C8.95112 45.0949 8.15824 45.4093 7.32911 45.7628C7.27186 45.7871 7.2085 45.7937 7.14736 45.7818C7.08623 45.7699 7.03017 45.7401 6.98658 45.6962L1.73245 40.4109C1.68572 40.3637 1.65898 40.3007 1.65761 40.2346C1.65625 40.1684 1.68037 40.1041 1.7251 40.0545C2.04852 39.6972 2.37292 39.3074 2.6983 38.8853C3.62642 37.6809 4.29679 36.3523 4.7094 34.8997C5.50619 32.0957 5.41651 29.3377 4.44037 26.6255C3.92093 25.1816 3.16285 23.8883 2.16613 22.7456C1.53987 22.0285 0.807758 21.4736 0.102112 20.8651C0.049553 20.8199 0.0147491 20.758 0.00373936 20.69C-0.00727043 20.622 0.00620873 20.5522 0.0418377 20.4927L4.34922 13.3037C4.36736 13.2731 4.39581 13.2496 4.42963 13.2375C4.46346 13.2253 4.50054 13.2252 4.53445 13.2371C5.66741 13.6408 6.86799 14.0615 8.13619 14.499C8.52528 14.6333 8.87124 14.6811 9.17408 14.6424C10.5163 14.4729 11.3204 13.6761 11.7879 12.4533C12.2319 11.2933 12.67 10.1159 13.1022 8.9211C13.1297 8.8445 13.1807 8.77823 13.2481 8.73149C13.3155 8.68476 13.3961 8.65988 13.4785 8.66031L14.9339 8.66466C15.1897 8.66563 15.3382 8.79071 15.3794 9.0399L15.3955 9.14277C15.4406 9.41514 15.323 9.55037 15.0427 9.54843L14.0813 9.54409C14.0094 9.54371 13.9392 9.56522 13.8803 9.60568C13.8213 9.64614 13.7765 9.70357 13.752 9.7701C13.4452 10.5988 13.1066 11.5048 12.7361 12.4881C12.2863 13.6833 11.7409 14.5497 10.5986 15.1568C9.64304 15.6653 8.53165 15.5972 7.50405 15.2307C6.80428 14.9815 6.09962 14.726 5.39005 14.4642C5.23226 14.4063 5.06908 14.3541 4.90051 14.3078C4.87457 14.3012 4.8472 14.3029 4.82253 14.3129C4.79787 14.3228 4.77725 14.3403 4.76379 14.3628L1.15176 20.3565C1.13326 20.3874 1.12554 20.4234 1.12979 20.459C1.13404 20.4946 1.15002 20.5278 1.17528 20.5536C1.38306 20.7641 1.60014 20.9684 1.82654 21.1664C4.27719 23.3107 5.71347 26.4241 6.04424 29.6362C6.44509 33.519 5.40671 37.0053 2.92911 40.0951C2.89961 40.1317 2.88455 40.1776 2.88671 40.2244C2.88887 40.2712 2.9081 40.3159 2.94087 40.3501C3.55537 40.9876 4.18065 41.6197 4.81671 42.2466C5.6532 43.0724 6.44558 43.9431 7.32176 44.7153C7.34544 44.736 7.3748 44.7495 7.40635 44.7541C7.43789 44.7587 7.47028 44.7543 7.49964 44.7414C8.0867 44.4806 8.71198 44.2339 9.37548 44.0011C11.6262 43.21 13.9872 43.5505 15.9527 44.9182C16.3957 45.2273 16.8686 45.5484 17.3713 45.8816C17.4899 45.9599 17.6061 45.9575 17.7198 45.8744C18.1931 45.5286 18.6944 45.1852 19.2237 44.8443C21.1554 43.5998 23.24 43.2144 25.476 43.9388C26.0768 44.1329 26.7266 44.385 27.4253 44.6951C27.5038 44.7299 27.5913 44.7401 27.6757 44.7242C27.7601 44.7084 27.8375 44.6674 27.8972 44.6067L32.2105 40.2284C32.2189 40.2199 32.2237 40.2085 32.224 40.1964C32.2242 40.1844 32.22 40.1725 32.212 40.1632ZM17.4845 8.95008C17.4934 8.74241 17.6026 8.64196 17.8124 8.64873L18.9002 8.68205C18.9496 8.68375 18.9977 8.66688 19.0348 8.63485C19.072 8.60282 19.0953 8.55804 19.1002 8.50964C19.3001 6.52477 19.4427 4.58192 19.1075 2.61879C18.9826 1.88279 18.4283 0.396316 17.3361 1.01061C16.8112 1.30472 16.5599 2.08128 16.4643 2.64631C16.2614 3.86428 16.232 5.22229 16.3761 6.72036C16.5897 8.93414 16.9695 11.2633 17.5154 13.708C17.536 13.8017 17.558 13.8944 17.5816 13.9861C17.6374 14.2092 17.855 14.3454 18.0682 14.2165C18.0955 14.2 18.1192 14.1783 18.1376 14.1526C18.1561 14.127 18.169 14.0979 18.1755 14.0673C18.4881 12.6049 18.7532 11.1329 18.9708 9.6513C18.9729 9.63625 18.9717 9.62092 18.9673 9.60636C18.9628 9.59181 18.9553 9.57837 18.9451 9.56696C18.9349 9.55555 18.9223 9.54643 18.9083 9.54023C18.8942 9.53404 18.8789 9.53091 18.8635 9.53105L17.8506 9.54554C17.5909 9.5494 17.4664 9.42384 17.4772 9.16885L17.4845 8.95008ZM19.9161 17.4908C19.9161 17.1742 19.8528 16.8607 19.7299 16.5682C19.6069 16.2757 19.4267 16.01 19.1996 15.7861C18.9724 15.5622 18.7028 15.3847 18.406 15.2635C18.1092 15.1423 17.7911 15.08 17.4698 15.08C17.1486 15.08 16.8305 15.1423 16.5337 15.2635C16.2369 15.3847 15.9672 15.5622 15.7401 15.7861C15.5129 16.01 15.3327 16.2757 15.2098 16.5682C15.0869 16.8607 15.0236 17.1742 15.0236 17.4908C15.0236 18.1302 15.2813 18.7434 15.7401 19.1955C16.1988 19.6476 16.8211 19.9016 17.4698 19.9016C18.1186 19.9016 18.7408 19.6476 19.1996 19.1955C19.6584 18.7434 19.9161 18.1302 19.9161 17.4908Z"/>
</mask>
<path d="M32.212 40.1632C30.2156 37.8441 29.1272 35.145 28.9469 32.0658C28.6896 27.6672 30.3302 23.3628 33.8541 20.6115C33.8883 20.5844 33.9115 20.5461 33.9193 20.5035C33.9272 20.4609 33.9191 20.4169 33.8967 20.3797L30.2964 14.3744C30.283 14.3521 30.2636 14.3338 30.2403 14.3216C30.217 14.3093 30.1906 14.3035 30.1641 14.3049C29.9113 14.3165 29.7275 14.4367 29.4982 14.5251C28.3711 14.9607 27.4371 15.2678 26.6962 15.4465C26.1552 15.5779 25.5691 15.5484 24.9379 15.3582C23.6957 14.9829 22.8372 13.918 22.4123 12.7561C22.0213 11.6878 21.6395 10.692 21.2671 9.76865C21.2034 9.61218 21.0873 9.5296 20.9187 9.52091C20.6452 9.50642 20.3649 9.50738 20.0778 9.5238C19.9484 9.53153 19.8744 9.59866 19.8558 9.72519C19.6422 11.2542 19.3717 12.7488 19.0443 14.2092C19.0002 14.4053 19.0605 14.5579 19.2251 14.6671C20.3086 15.3842 20.8172 16.3115 20.8084 17.6009C20.8045 18.2857 20.5708 18.9256 20.1072 19.5206C19.6397 20.1213 18.9973 20.5207 18.1799 20.7187C17.0509 20.994 15.5484 20.5246 14.834 19.5177C14.0666 18.4398 13.9235 17.3276 14.4047 16.1811C14.7943 15.2538 15.5925 14.5917 16.5569 14.3092C16.6072 14.2943 16.6498 14.261 16.6758 14.2162C16.7018 14.1714 16.7093 14.1186 16.6966 14.0687C16.4594 13.1608 16.2599 12.2157 16.0982 11.2334C15.9404 10.2724 15.7934 9.33691 15.6572 8.42706C15.371 6.51753 15.3279 4.65774 15.5278 2.8477C15.5768 2.4034 15.7072 1.91418 15.9189 1.38006C16.2149 0.635369 16.7382 0.188654 17.4889 0.0399095C17.831 -0.0286674 18.148 -0.00886703 18.4401 0.0993106C19.2898 0.413702 19.6338 1.15114 19.8646 1.98711C20.2674 3.44895 20.2645 5.2165 20.1557 6.65082C20.1077 7.2796 20.0582 7.90259 20.0072 8.51978C20.0058 8.53932 20.0085 8.55893 20.0152 8.57737C20.0219 8.59581 20.0325 8.61267 20.0462 8.62686C20.0599 8.64104 20.0764 8.65225 20.0948 8.65976C20.1131 8.66727 20.1329 8.67091 20.1528 8.67046C20.6732 8.65404 21.1907 8.66659 21.7052 8.70813C21.7487 8.71165 21.7903 8.72728 21.8252 8.75318C21.8601 8.77908 21.8868 8.8142 21.9022 8.85446C22.2815 9.84254 22.6833 10.9151 23.1077 12.0723C23.581 13.3617 24.2029 14.286 25.5862 14.6106C25.9758 14.7018 26.3874 14.6453 26.7638 14.5251C27.9908 14.1291 29.2086 13.7036 30.417 13.2487C30.4625 13.2312 30.5126 13.2292 30.5594 13.2428C30.6062 13.2564 30.6471 13.285 30.6757 13.324C30.8286 13.5336 30.9683 13.7442 31.0947 13.9557C32.3129 15.9956 33.5537 18.0694 34.817 20.1769C34.9772 20.4435 35.136 20.781 34.8096 21.0172C31.4563 23.4439 29.7157 27.3615 29.8128 31.4457C29.8922 34.8253 31.0864 37.7224 33.3954 40.1371C33.418 40.1609 33.4305 40.1923 33.4302 40.2247C33.43 40.2572 33.4169 40.2881 33.3939 40.311L28.1119 45.6411C28.0614 45.6917 27.9973 45.7271 27.9272 45.743C27.8572 45.7589 27.784 45.7547 27.7164 45.731C27.1156 45.5223 26.5413 45.3021 25.9935 45.0703C23.8692 44.1735 21.7302 44.2488 19.7735 45.5397C19.0541 46.014 18.369 46.4819 17.7183 46.9436C17.6682 46.979 17.6083 46.9986 17.5467 46.9999C17.485 47.0012 17.4244 46.9841 17.3728 46.9509C16.4261 46.3322 15.5087 45.6382 14.5032 45.1065C13.039 44.3358 11.1969 44.2778 9.70773 44.8197C8.95112 45.0949 8.15824 45.4093 7.32911 45.7628C7.27186 45.7871 7.2085 45.7937 7.14736 45.7818C7.08623 45.7699 7.03017 45.7401 6.98658 45.6962L1.73245 40.4109C1.68572 40.3637 1.65898 40.3007 1.65761 40.2346C1.65625 40.1684 1.68037 40.1041 1.7251 40.0545C2.04852 39.6972 2.37292 39.3074 2.6983 38.8853C3.62642 37.6809 4.29679 36.3523 4.7094 34.8997C5.50619 32.0957 5.41651 29.3377 4.44037 26.6255C3.92093 25.1816 3.16285 23.8883 2.16613 22.7456C1.53987 22.0285 0.807758 21.4736 0.102112 20.8651C0.049553 20.8199 0.0147491 20.758 0.00373936 20.69C-0.00727043 20.622 0.00620873 20.5522 0.0418377 20.4927L4.34922 13.3037C4.36736 13.2731 4.39581 13.2496 4.42963 13.2375C4.46346 13.2253 4.50054 13.2252 4.53445 13.2371C5.66741 13.6408 6.86799 14.0615 8.13619 14.499C8.52528 14.6333 8.87124 14.6811 9.17408 14.6424C10.5163 14.4729 11.3204 13.6761 11.7879 12.4533C12.2319 11.2933 12.67 10.1159 13.1022 8.9211C13.1297 8.8445 13.1807 8.77823 13.2481 8.73149C13.3155 8.68476 13.3961 8.65988 13.4785 8.66031L14.9339 8.66466C15.1897 8.66563 15.3382 8.79071 15.3794 9.0399L15.3955 9.14277C15.4406 9.41514 15.323 9.55037 15.0427 9.54843L14.0813 9.54409C14.0094 9.54371 13.9392 9.56522 13.8803 9.60568C13.8213 9.64614 13.7765 9.70357 13.752 9.7701C13.4452 10.5988 13.1066 11.5048 12.7361 12.4881C12.2863 13.6833 11.7409 14.5497 10.5986 15.1568C9.64304 15.6653 8.53165 15.5972 7.50405 15.2307C6.80428 14.9815 6.09962 14.726 5.39005 14.4642C5.23226 14.4063 5.06908 14.3541 4.90051 14.3078C4.87457 14.3012 4.8472 14.3029 4.82253 14.3129C4.79787 14.3228 4.77725 14.3403 4.76379 14.3628L1.15176 20.3565C1.13326 20.3874 1.12554 20.4234 1.12979 20.459C1.13404 20.4946 1.15002 20.5278 1.17528 20.5536C1.38306 20.7641 1.60014 20.9684 1.82654 21.1664C4.27719 23.3107 5.71347 26.4241 6.04424 29.6362C6.44509 33.519 5.40671 37.0053 2.92911 40.0951C2.89961 40.1317 2.88455 40.1776 2.88671 40.2244C2.88887 40.2712 2.9081 40.3159 2.94087 40.3501C3.55537 40.9876 4.18065 41.6197 4.81671 42.2466C5.6532 43.0724 6.44558 43.9431 7.32176 44.7153C7.34544 44.736 7.3748 44.7495 7.40635 44.7541C7.43789 44.7587 7.47028 44.7543 7.49964 44.7414C8.0867 44.4806 8.71198 44.2339 9.37548 44.0011C11.6262 43.21 13.9872 43.5505 15.9527 44.9182C16.3957 45.2273 16.8686 45.5484 17.3713 45.8816C17.4899 45.9599 17.6061 45.9575 17.7198 45.8744C18.1931 45.5286 18.6944 45.1852 19.2237 44.8443C21.1554 43.5998 23.24 43.2144 25.476 43.9388C26.0768 44.1329 26.7266 44.385 27.4253 44.6951C27.5038 44.7299 27.5913 44.7401 27.6757 44.7242C27.7601 44.7084 27.8375 44.6674 27.8972 44.6067L32.2105 40.2284C32.2189 40.2199 32.2237 40.2085 32.224 40.1964C32.2242 40.1844 32.22 40.1725 32.212 40.1632ZM17.4845 8.95008C17.4934 8.74241 17.6026 8.64196 17.8124 8.64873L18.9002 8.68205C18.9496 8.68375 18.9977 8.66688 19.0348 8.63485C19.072 8.60282 19.0953 8.55804 19.1002 8.50964C19.3001 6.52477 19.4427 4.58192 19.1075 2.61879C18.9826 1.88279 18.4283 0.396316 17.3361 1.01061C16.8112 1.30472 16.5599 2.08128 16.4643 2.64631C16.2614 3.86428 16.232 5.22229 16.3761 6.72036C16.5897 8.93414 16.9695 11.2633 17.5154 13.708C17.536 13.8017 17.558 13.8944 17.5816 13.9861C17.6374 14.2092 17.855 14.3454 18.0682 14.2165C18.0955 14.2 18.1192 14.1783 18.1376 14.1526C18.1561 14.127 18.169 14.0979 18.1755 14.0673C18.4881 12.6049 18.7532 11.1329 18.9708 9.6513C18.9729 9.63625 18.9717 9.62092 18.9673 9.60636C18.9628 9.59181 18.9553 9.57837 18.9451 9.56696C18.9349 9.55555 18.9223 9.54643 18.9083 9.54023C18.8942 9.53404 18.8789 9.53091 18.8635 9.53105L17.8506 9.54554C17.5909 9.5494 17.4664 9.42384 17.4772 9.16885L17.4845 8.95008ZM19.9161 17.4908C19.9161 17.1742 19.8528 16.8607 19.7299 16.5682C19.6069 16.2757 19.4267 16.01 19.1996 15.7861C18.9724 15.5622 18.7028 15.3847 18.406 15.2635C18.1092 15.1423 17.7911 15.08 17.4698 15.08C17.1486 15.08 16.8305 15.1423 16.5337 15.2635C16.2369 15.3847 15.9672 15.5622 15.7401 15.7861C15.5129 16.01 15.3327 16.2757 15.2098 16.5682C15.0869 16.8607 15.0236 17.1742 15.0236 17.4908C15.0236 18.1302 15.2813 18.7434 15.7401 19.1955C16.1988 19.6476 16.8211 19.9016 17.4698 19.9016C18.1186 19.9016 18.7408 19.6476 19.1996 19.1955C19.6584 18.7434 19.9161 18.1302 19.9161 17.4908Z" stroke="white" stroke-width="2" mask="url(#path-1-inside-1_963_2640)"/>
</svg>
