<svg width="47" height="48" viewBox="0 0 47 48" fill="none" xmlns="http://www.w3.org/2000/svg">
<path d="M11.9204 1.15598C11.8533 1.41969 12.0011 1.55653 12.3638 1.56651L13.3157 2.73161C13.9828 3.46071 14.6509 4.18869 15.3202 4.91557C15.8497 5.48953 16.2856 5.88012 16.6278 6.08732C17.1335 6.39425 17.6879 6.60145 18.2911 6.70893C19.74 7.02971 21.2133 7.24246 22.5599 7.96878L21.2848 8.19648C21.2317 8.20645 21.203 8.23859 21.1987 8.29288C21.1954 8.34607 21.2019 8.40258 21.2182 8.46241C20.5869 8.23526 19.9539 8.09122 19.3193 8.03027C18.78 7.86296 18.2364 7.72612 17.6885 7.61974C17.0745 7.50118 16.4615 7.22085 15.8497 6.77874C15.501 6.52832 15.0191 6.06516 14.404 5.38925C13.829 4.75989 13.2361 4.12498 12.6254 3.48453L10.6696 1.42855C10.5884 1.20362 10.5706 0.9665 10.616 0.71719C10.694 0.559848 10.818 0.480069 10.988 0.477853C11.1028 0.475637 11.2246 0.526053 11.3535 0.629101C11.5473 0.784227 11.7363 0.959852 11.9204 1.15598Z" fill="white"/>
<path d="M28.0096 7.98714L27.3176 7.98215C25.6851 7.55168 24.6813 5.97604 25.3505 4.31564C26.3885 1.74775 29.9637 2.38266 30.2447 5.07354C30.3941 6.50458 29.3562 7.66636 28.0096 7.98714ZM29.2815 5.30955C29.2815 4.87933 29.1144 4.46672 28.8171 4.1625C28.5198 3.85829 28.1166 3.68738 27.6961 3.68738C27.2756 3.68738 26.8724 3.85829 26.5751 4.1625C26.2778 4.46672 26.1107 4.87933 26.1107 5.30955C26.1107 5.73978 26.2778 6.15239 26.5751 6.45661C26.8724 6.76082 27.2756 6.93173 27.6961 6.93173C28.1166 6.93173 28.5198 6.76082 28.8171 6.45661C29.1144 6.15239 29.2815 5.73978 29.2815 5.30955Z" fill="white"/>
<path d="M4.67736 8.13C6.52912 10.2297 7.73872 11.5838 8.30616 12.1921C8.89743 12.827 9.21742 13.5849 9.16057 14.4425C9.08585 15.5744 9.2223 16.4719 9.94676 17.4126C12.5533 20.8021 15.0775 24.0936 17.5195 27.287C17.6375 27.4421 17.7756 27.5701 17.9337 27.6709C18.6598 28.1363 19.4931 27.4415 19.3631 26.6404C19.3317 26.4498 19.2251 26.2354 19.0431 25.9972C17.8639 24.4526 16.8042 23.0725 15.8643 21.857C15.8519 21.8407 15.8458 21.8203 15.8473 21.7997C15.8488 21.7791 15.8578 21.7598 15.8724 21.7456C16.0327 21.5872 16.2514 21.4177 16.5286 21.237C16.5774 21.206 16.6196 21.2132 16.6553 21.2587C18.5883 23.7783 20.4384 26.1928 22.2057 28.5019C23.1511 29.7385 24.7202 28.4737 23.8236 27.3152C22.1321 25.1357 20.4162 22.903 18.676 20.6171C18.5937 20.5096 18.6051 20.4138 18.7101 20.3296L19.1325 19.9872C19.2548 19.8886 19.3642 19.9019 19.4606 20.0271C21.6654 22.8936 23.7868 25.6598 25.8248 28.3258C26.6451 29.3994 28.224 28.1712 27.3338 27.0144C25.2048 24.2465 23.0932 21.493 20.9989 18.7539C20.9122 18.6398 20.9252 18.5395 21.0378 18.4531L21.4862 18.109C21.5944 18.0259 21.6903 18.0392 21.7737 18.1489C23.5453 20.4658 25.2747 22.7163 26.9618 24.9002C27.4865 25.5784 28.4563 25.3523 28.6885 24.5479C28.8136 24.1124 28.6041 23.7584 28.3474 23.431C26.9927 21.688 25.1669 19.3129 22.8701 16.3057C22.0189 15.1905 21.4553 14.5439 21.7477 13.2691C21.7715 13.1649 21.7888 13.0663 21.7997 12.9733C21.8062 12.9201 21.785 12.8852 21.7363 12.8685C20.9144 12.5738 20.2062 12.1178 19.6117 11.5007C19.5586 11.4453 19.558 11.3893 19.61 11.3328L20.0973 10.796C20.1569 10.7317 20.2175 10.7306 20.2793 10.7926C20.9306 11.4408 21.7753 11.9461 22.6638 12.089C23.1625 12.1672 23.6141 12.2569 24.0835 12.463C25.3559 13.0237 26.702 13.6148 28.1216 14.2364C29.1645 14.6935 29.7606 13.314 28.8006 12.8037C26.703 11.6868 24.8226 10.53 23.1592 9.33334C22.7402 9.03084 22.0931 8.74053 21.2181 8.46241C21.2019 8.40258 21.1954 8.34607 21.1986 8.29288C21.203 8.23859 21.2317 8.20645 21.2847 8.19648L22.5599 7.96878L23.026 8.13499C23.4668 8.37321 24.1393 8.81034 25.0435 9.44636C25.7474 9.94054 27.0988 10.735 29.0979 11.8298C29.4022 11.9971 29.6469 12.1843 29.8321 12.3915C30.3584 12.9799 30.4006 13.9289 29.9409 14.5589C29.3616 15.3555 28.583 15.5351 27.6051 15.0974C26.1941 14.4658 24.7143 13.827 23.1657 13.181C22.9405 13.0868 22.7856 13.1561 22.7012 13.3888C22.5236 13.8774 22.6297 14.3749 23.0195 14.8813C25.0034 17.4642 26.9873 20.0481 28.9712 22.6332C29.3459 23.1229 29.5695 23.508 29.642 23.7883C29.9312 24.9235 29.2148 25.9839 28.1151 26.2681C28.0523 26.2836 28.0415 26.3174 28.0827 26.3695C28.6328 27.0709 28.7281 27.8127 28.3685 28.595C27.7204 30.0028 25.9336 30.0659 25.0191 28.8942C25.0061 28.8771 24.989 28.8639 24.9694 28.8558C24.9498 28.8477 24.9284 28.8451 24.9075 28.8481C24.8866 28.8511 24.8668 28.8598 24.8502 28.8731C24.8336 28.8864 24.8207 28.904 24.8128 28.9241C24.7349 29.1152 24.6813 29.2814 24.5188 29.4227C23.4435 30.3568 22.1846 30.1806 21.3854 29.0654C21.0281 28.5656 20.668 28.0925 20.3053 27.646C20.2971 27.6359 20.2866 27.628 20.2748 27.6231C20.2629 27.6183 20.2499 27.6165 20.2371 27.6179C20.2243 27.6194 20.2119 27.6241 20.2011 27.6316C20.1904 27.6391 20.1815 27.6492 20.1753 27.6609C19.8743 28.2493 19.4346 28.6105 18.8563 28.7446C18.0366 28.9363 17.3349 28.6521 16.7512 27.892C14.2031 24.58 11.655 21.2598 9.10697 17.9312C8.34839 16.9389 8.07713 15.7506 8.18271 14.5007C8.22332 14.0187 8.08363 13.4569 7.77987 13.1012C6.87132 12.0431 5.36067 10.3561 3.24793 8.04025L2.79961 7.53166C2.68157 7.39758 2.68807 7.27016 2.8191 7.14938L3.17483 6.82362C3.29395 6.71392 3.40766 6.71946 3.51595 6.84024L4.67736 8.13Z" fill="white"/>
<path d="M35.7334 16.8291C35.7334 17.3563 35.5287 17.862 35.1643 18.2347C34.8 18.6075 34.3059 18.817 33.7906 18.817C33.2754 18.817 32.7812 18.6075 32.4169 18.2347C32.0526 17.862 31.8479 17.3563 31.8479 16.8291C31.8479 16.5681 31.8982 16.3096 31.9958 16.0684C32.0934 15.8273 32.2365 15.6081 32.4169 15.4235C32.5973 15.2389 32.8115 15.0925 33.0472 14.9926C33.2829 14.8927 33.5355 14.8413 33.7906 14.8413C34.0457 14.8413 34.2984 14.8927 34.5341 14.9926C34.7698 15.0925 34.9839 15.2389 35.1643 15.4235C35.3447 15.6081 35.4878 15.8273 35.5855 16.0684C35.6831 16.3096 35.7334 16.5681 35.7334 16.8291ZM34.7587 16.8341C34.7587 16.5718 34.6569 16.3203 34.4757 16.1348C34.2944 15.9494 34.0486 15.8452 33.7923 15.8452C33.5359 15.8452 33.2901 15.9494 33.1088 16.1348C32.9276 16.3203 32.8258 16.5718 32.8258 16.8341C32.8258 17.0964 32.9276 17.3479 33.1088 17.5334C33.2901 17.7189 33.5359 17.8231 33.7923 17.8231C34.0486 17.8231 34.2944 17.7189 34.4757 17.5334C34.6569 17.3479 34.7587 17.0964 34.7587 16.8341Z" fill="white"/>
<path d="M44.1946 32.2533L46.0399 23.0704C46.0615 22.9618 46.1254 22.9197 46.2315 22.9441L46.8829 23.0887C46.9771 23.1097 47.0145 23.169 46.995 23.2665C45.5082 30.6494 44.0408 37.947 42.593 45.1592C42.3851 46.1963 41.8869 46.8861 41.0986 47.2285C40.7272 47.3892 40.3963 47.4695 40.1061 47.4695C29.2598 47.4584 18.3013 47.4612 7.23085 47.4778C6.7717 47.4789 6.37211 47.4108 6.03207 47.2734C4.99086 46.8512 4.58965 46.0202 4.37036 44.9282C2.91169 37.6495 1.45519 30.3945 0.000853748 23.1635C-0.00155321 23.1502 0.0011752 23.1366 0.00845737 23.1254C0.0157395 23.1142 0.0269999 23.1064 0.0398385 23.1036L0.899121 22.9258C0.905078 22.9244 0.911259 22.9242 0.917297 22.9254C0.923334 22.9266 0.929103 22.929 0.934259 22.9326C0.939414 22.9362 0.943851 22.9408 0.947302 22.9462C0.950754 22.9516 0.953151 22.9576 0.954349 22.964L2.86459 32.466C2.87758 32.5314 2.91548 32.5713 2.97829 32.5857C6.60168 33.4422 10.2316 33.9275 13.868 34.0417C16.5914 34.127 19.152 33.8799 21.5495 33.3004C22.2891 33.122 22.9925 32.8915 23.6595 32.609C25.6754 31.7563 27.8471 31.2477 29.9913 31.0549C34.6418 30.6394 39.4076 31.1979 44.0842 32.3248C44.1448 32.3403 44.1816 32.3164 44.1946 32.2533ZM25.9418 32.8433C24.6488 33.2256 23.4451 33.8472 22.1245 34.1846C19.9566 34.7364 17.7409 35.0217 15.4777 35.0406C11.4341 35.0727 7.3386 34.6129 3.19108 33.6611C3.13369 33.6478 3.11041 33.6705 3.12124 33.7292C3.89768 37.6173 4.66058 41.4107 5.40995 45.1094C5.63086 46.1963 6.44304 46.4855 7.4615 46.4839C18.1313 46.465 28.8927 46.465 39.7455 46.4839C41.0174 46.4855 41.4478 45.9005 41.7012 44.644C42.4528 40.921 43.1967 37.2212 43.9331 33.5447C43.9623 33.4018 43.9076 33.3126 43.769 33.2771C40.8322 32.5447 37.8342 32.1009 34.775 31.9458C31.8447 31.7962 28.7681 32.0073 25.9418 32.8433Z" fill="white"/>
<path d="M13.6128 28.113C13.6128 28.6552 13.4024 29.1752 13.0277 29.5586C12.653 29.942 12.1448 30.1573 11.6149 30.1573C11.3525 30.1573 11.0927 30.1045 10.8503 30.0017C10.6079 29.899 10.3877 29.7484 10.2021 29.5586C10.0166 29.3687 9.86943 29.1434 9.76903 28.8953C9.66862 28.6473 9.61694 28.3815 9.61694 28.113C9.61694 27.8445 9.66862 27.5787 9.76903 27.3307C9.86943 27.0826 10.0166 26.8573 10.2021 26.6674C10.3877 26.4776 10.6079 26.327 10.8503 26.2243C11.0927 26.1215 11.3525 26.0687 11.6149 26.0687C12.1448 26.0687 12.653 26.284 13.0277 26.6674C13.4024 27.0508 13.6128 27.5708 13.6128 28.113ZM12.6399 28.1113C12.6399 27.8336 12.532 27.5673 12.3401 27.3709C12.1482 27.1746 11.8879 27.0642 11.6165 27.0642C11.3451 27.0642 11.0848 27.1746 10.8929 27.3709C10.701 27.5673 10.5932 27.8336 10.5932 28.1113C10.5932 28.389 10.701 28.6554 10.8929 28.8518C11.0848 29.0481 11.3451 29.1584 11.6165 29.1584C11.8879 29.1584 12.1482 29.0481 12.3401 28.8518C12.532 28.6554 12.6399 28.389 12.6399 28.1113Z" fill="white"/>
</svg>
