<svg width="38" height="30" viewBox="0 0 38 30" fill="none" xmlns="http://www.w3.org/2000/svg">
<path d="M1.75762 29.0307L36.2076 28.9907C36.2467 28.9911 36.2854 28.9831 36.3211 28.9671C36.3568 28.9511 36.3885 28.9275 36.4142 28.8981C36.4399 28.8686 36.4588 28.8339 36.4698 28.7964C36.4807 28.7588 36.4834 28.7194 36.4776 28.6807L31.7276 1.49072C31.7088 1.37942 31.6514 1.27832 31.5654 1.20516C31.4795 1.13201 31.3705 1.09149 31.2576 1.09071L8.84762 1.16071C8.60762 1.16071 8.52762 1.04738 8.60762 0.820714L8.84762 0.120713C8.87428 0.0340466 8.93429 -0.00595237 9.02762 0.000714301L31.7576 0.220716C31.9004 0.221604 32.0386 0.274121 32.1482 0.36913C32.2578 0.46414 32.3319 0.595629 32.3576 0.740716L37.2776 28.9607C37.298 29.0813 37.2918 29.2049 37.2595 29.3229C37.2271 29.4408 37.1694 29.5503 37.0904 29.6436C37.0113 29.7369 36.9128 29.8119 36.8018 29.8632C36.6908 29.9145 36.5699 29.941 36.4476 29.9407L0.457619 29.9307C0.0442854 29.9307 -0.0890476 29.7374 0.0576191 29.3507C2.22762 23.8007 8.15762 14.7107 15.0376 14.6807C20.471 14.654 25.9176 14.6707 31.3776 14.7307C31.531 14.7374 31.6043 14.814 31.5976 14.9607V15.3007C31.5976 15.5474 31.4743 15.6707 31.2276 15.6707C26.1143 15.684 20.9276 15.6507 15.6676 15.5707C14.7276 15.5574 13.7976 15.654 12.8776 15.8607C8.11762 16.9307 3.41762 23.8807 1.31762 28.3407C1.10429 28.8007 1.25095 29.0307 1.75762 29.0307Z" fill="white"/>
<path d="M23.7435 24.6677C23.288 24.6438 22.8631 24.3915 22.5624 23.9664C22.2617 23.5413 22.1098 22.9781 22.14 22.4007C22.1703 21.8233 22.3803 21.2791 22.7238 20.8877C23.0673 20.4963 23.5162 20.2898 23.9717 20.3137C24.4273 20.3376 24.8521 20.5898 25.1528 21.015C25.4535 21.4401 25.6055 22.0033 25.5752 22.5807C25.545 23.1581 25.335 23.7023 24.9915 24.0937C24.648 24.4851 24.1991 24.6916 23.7435 24.6677ZM22.7576 22.3607C22.6913 22.5406 22.6837 22.7366 22.7358 22.9201C22.788 23.1036 22.8972 23.265 23.0476 23.3807C23.921 24.0407 24.5576 23.7307 24.9576 22.4507C24.9909 22.343 25.0019 22.2297 24.99 22.1177C24.9781 22.0056 24.9435 21.8971 24.8883 21.7989C24.8331 21.7007 24.7584 21.6147 24.6689 21.5462C24.5794 21.4778 24.4769 21.4282 24.3676 21.4007C23.5943 21.2074 23.0576 21.5274 22.7576 22.3607Z" fill="white"/>
<path d="M17.1858 24.6979C16.9616 24.6865 16.7424 24.6182 16.5408 24.4968C16.3392 24.3754 16.1592 24.2032 16.011 23.9902C15.8628 23.7773 15.7493 23.5276 15.677 23.2554C15.6048 22.9833 15.5752 22.694 15.5898 22.4042C15.6045 22.1143 15.6632 21.8296 15.7626 21.5661C15.862 21.3027 16.0001 21.0657 16.1691 20.8688C16.3381 20.6719 16.5346 20.5188 16.7474 20.4184C16.9602 20.318 17.1852 20.2721 17.4094 20.2835C17.6337 20.2949 17.8529 20.3632 18.0545 20.4846C18.2561 20.606 18.4361 20.7781 18.5843 20.9911C18.7325 21.2041 18.846 21.4538 18.9182 21.726C18.9905 21.9981 19.0201 22.2873 19.0054 22.5772C18.9908 22.867 18.9321 23.1518 18.8327 23.4153C18.7333 23.6787 18.5952 23.9157 18.4262 24.1126C18.2572 24.3095 18.0607 24.4625 17.8479 24.563C17.6351 24.6634 17.4101 24.7093 17.1858 24.6979ZM17.349 23.7C17.4711 23.696 17.5909 23.6596 17.7016 23.5931C17.8123 23.5266 17.9117 23.4312 17.9942 23.3123C18.0766 23.1934 18.1405 23.0535 18.1822 22.9003C18.2239 22.7472 18.2426 22.584 18.2371 22.4199C18.2262 22.0886 18.1177 21.774 17.9356 21.5455C17.7535 21.317 17.5128 21.1932 17.2662 21.2014C17.1442 21.2054 17.0244 21.2417 16.9137 21.3083C16.803 21.3748 16.7036 21.4702 16.6211 21.5891C16.5386 21.7079 16.4747 21.8479 16.4331 22.0011C16.3914 22.1542 16.3727 22.3174 16.3781 22.4815C16.3891 22.8128 16.4976 23.1273 16.6797 23.3559C16.8617 23.5844 17.1025 23.7082 17.349 23.7Z" fill="white"/>
</svg>
