<svg width="22" height="37" viewBox="0 0 22 37" fill="none" xmlns="http://www.w3.org/2000/svg">
<g clip-path="url(#clip0_971_2736)">
<path d="M10.5718 34.0085C10.5722 33.9914 10.5674 33.9744 10.5575 33.9598C10.5477 33.9452 10.5335 33.9336 10.5166 33.9265C10.4996 33.9193 10.4809 33.917 10.4626 33.9197C10.4442 33.9224 10.4271 33.93 10.4135 33.9417C8.41446 35.5714 6.09896 36.3939 3.37808 36.0264C3.24852 36.0092 3.19022 35.9407 3.20318 35.8208L3.21983 35.682C3.22225 35.6593 3.22951 35.6373 3.24117 35.6173C3.25284 35.5972 3.26869 35.5795 3.28779 35.5651C3.3069 35.5508 3.32889 35.5401 3.35249 35.5337C3.37609 35.5272 3.40083 35.5252 3.42529 35.5277C6.14247 35.7967 8.37282 35.0487 10.1164 33.2836C10.4514 32.9443 10.6162 32.5638 10.6106 32.1423C10.5884 30.3189 10.5745 28.4399 10.569 26.5051C10.5671 26.3988 10.5089 26.3457 10.394 26.3457C7.82867 26.3543 5.26882 26.3517 2.71452 26.338C1.45126 26.3303 -0.161831 25.3535 0.67942 23.991C1.74556 22.2611 2.75895 20.4488 3.86396 18.6185C4.64413 17.3256 4.58305 15.4928 3.6113 14.1869C1.93991 11.9454 0.61001 9.51881 0.0547288 7.26697C-0.197924 6.24132 0.662762 5.58069 1.59564 5.26708C3.18373 4.73754 4.83385 4.20286 6.54597 3.66305C7.41776 3.39057 7.18176 2.61683 7.28172 1.97933C7.40387 1.1756 7.91289 0.766882 8.80874 0.753173C10.4542 0.727467 11.9757 0.735179 13.3732 0.776306C14.6836 0.814869 14.7225 2.04616 14.6836 2.95357C14.6779 3.08969 14.7197 3.2239 14.8026 3.33638C14.8856 3.44886 15.0055 3.53365 15.1445 3.57822C16.5549 4.02721 17.9986 4.49333 19.4757 4.9766C21.1332 5.51899 22.3354 5.92 21.744 7.72197C20.9527 10.1152 19.8311 12.0353 18.3513 14.2203C17.7312 15.1389 17.4739 16.0994 17.5794 17.1019C17.6386 17.652 17.9931 18.4746 18.6427 19.5697C19.4942 21.0092 20.3392 22.4067 21.1776 23.7622C21.8217 24.8008 21.4525 25.739 20.2142 26.1529C19.7052 26.3225 19.0704 26.3988 18.3096 26.3817C16.0033 26.3285 13.7378 26.3269 11.513 26.3765C11.3945 26.3782 11.3352 26.4339 11.3352 26.5436C11.3371 28.2367 11.338 29.977 11.338 31.7644C11.338 32.4413 11.6703 33.0711 12.3348 33.6538C14.0284 35.1378 16.082 35.7762 18.4956 35.5688C18.5357 35.5654 18.5757 35.5754 18.6084 35.5972C18.641 35.6189 18.6641 35.6509 18.6733 35.6871L18.6928 35.7642C18.7017 35.7999 18.7021 35.8369 18.6943 35.8728C18.6865 35.9086 18.6705 35.9426 18.6474 35.9723C18.6242 36.002 18.5945 36.0267 18.5602 36.0449C18.5259 36.0631 18.4878 36.0743 18.4484 36.0778C15.7387 36.3092 13.4463 35.5637 11.5713 33.8414C11.5522 33.8234 11.5278 33.8111 11.5011 33.8061C11.4745 33.8011 11.4469 33.8036 11.4218 33.8133C11.3967 33.823 11.3752 33.8394 11.3603 33.8604C11.3454 33.8815 11.3377 33.9062 11.338 33.9314V36.5071C11.338 36.6836 11.2437 36.7676 11.0549 36.759L10.9438 36.7538C10.6976 36.7436 10.5745 36.6236 10.5745 36.394L10.5718 34.0085ZM3.86118 19.9681C2.90055 21.4076 2.0269 22.9011 1.24025 24.4486C1.18816 24.5497 1.16658 24.6621 1.17782 24.7738C1.18906 24.8856 1.23269 24.9926 1.30411 25.0835C1.6817 25.5616 2.17591 25.8007 2.78672 25.8007C8.29696 25.8007 13.7415 25.8024 19.1203 25.8058C20.056 25.8058 21.2387 25.3046 20.6113 24.2121C19.6525 22.5447 18.6955 20.9424 17.7404 19.4051C17.1981 18.5329 16.8937 17.7771 16.827 17.1379C16.7141 16.0378 16.9936 15.0035 17.6655 14.0352C19.0231 12.0765 20.1615 10.1897 21.036 7.88907C21.3276 7.12045 21.3887 6.24389 20.4113 5.90457C18.6659 5.29621 16.8187 4.68271 14.8697 4.06405C13.8368 3.73502 13.8951 2.66309 13.8979 1.85851C13.8979 1.78157 13.8815 1.70539 13.8495 1.6344C13.8177 1.56341 13.7709 1.49902 13.712 1.44497C13.6531 1.39092 13.5832 1.3483 13.5065 1.31956C13.4297 1.29082 13.3476 1.27655 13.2649 1.27757L8.65882 1.32126C8.50408 1.3224 8.35571 1.37832 8.24375 1.47766C8.13182 1.57699 8.06479 1.71227 8.05633 1.85594C8.00358 2.72736 8.1424 3.74531 7.00685 4.10004C5.22255 4.65871 3.44102 5.24394 1.66227 5.85573C1.02091 6.07681 0.596128 6.61919 0.793253 7.2644C1.38555 9.23172 2.15739 10.8906 3.10877 12.241C3.69367 13.0687 4.1925 13.8527 4.60526 14.5931C5.59643 16.377 4.99951 18.2638 3.86118 19.9681Z" fill="white"/>
<path d="M11.1281 5.47216L10.8282 5.46828C10.704 5.46667 10.6019 5.55859 10.6002 5.67356L10.5821 6.87647C10.5803 6.99145 10.6796 7.08597 10.8038 7.08758L11.1036 7.09145C11.2278 7.09306 11.3299 7.00115 11.3316 6.88616L11.3498 5.68326C11.3515 5.56827 11.2522 5.47376 11.1281 5.47216Z" fill="white"/>
<path d="M11.1567 8.87961L10.8126 8.87296C10.7114 8.871 10.6277 8.94538 10.6256 9.03901L10.5957 10.3549C10.5936 10.4486 10.674 10.5261 10.7752 10.5281L11.1193 10.5347C11.2205 10.5367 11.3042 10.4623 11.3063 10.3687L11.3362 9.05283C11.3383 8.95912 11.2579 8.88157 11.1567 8.87961Z" fill="white"/>
<path d="M11.1367 12.3349L10.7647 12.3373C10.6374 12.3382 10.535 12.4344 10.5359 12.5522L10.5465 13.9608C10.5474 14.0787 10.6513 14.1735 10.7785 14.1727L11.1506 14.1703C11.2779 14.1694 11.3803 14.0733 11.3794 13.9554L11.3688 12.5468C11.3679 12.429 11.264 12.3341 11.1367 12.3349Z" fill="white"/>
<path d="M11.1248 15.679L10.775 15.6819C10.6615 15.6828 10.5703 15.7687 10.5713 15.8738L10.5832 17.1333C10.5842 17.2383 10.677 17.3227 10.7905 17.3218L11.1403 17.319C11.2537 17.3181 11.3449 17.2322 11.3439 17.1272L11.332 15.8676C11.331 15.7625 11.2382 15.6781 11.1248 15.679Z" fill="white"/>
<path d="M11.1233 19.0949L10.829 19.0934C10.7079 19.0928 10.6092 19.1833 10.6085 19.2954L10.6014 20.5499C10.6009 20.662 10.6985 20.7534 10.8197 20.754L11.114 20.7554C11.2351 20.756 11.3338 20.6656 11.3345 20.5534L11.3415 19.299C11.3422 19.1869 11.2445 19.0955 11.1233 19.0949Z" fill="white"/>
<path d="M11.1486 22.494L10.7766 22.4909C10.6677 22.49 10.5786 22.5711 10.5777 22.6719L10.5657 23.9519C10.5647 24.0527 10.6522 24.1352 10.7611 24.136L11.133 24.139C11.242 24.1399 11.331 24.0589 11.3319 23.9581L11.344 22.6781C11.345 22.5773 11.2575 22.4948 11.1486 22.494Z" fill="white"/>
</g>
<defs>
<clipPath id="clip0_971_2736">
<rect width="22" height="37" fill="white"/>
</clipPath>
</defs>
</svg>
