<svg width="24" height="51" viewBox="0 0 24 51" fill="none" xmlns="http://www.w3.org/2000/svg">
<path d="M11.2821 47.1313C9.09402 49.2837 6.90125 50.4619 3.66831 49.9634C3.6188 49.9557 3.57388 49.9312 3.54197 49.8945C3.51005 49.8578 3.49334 49.8114 3.49495 49.764L3.49963 49.5783C3.50276 49.3547 3.61833 49.255 3.84636 49.2792C6.86689 49.5934 9.30018 48.4892 11.1462 45.9668C11.4617 45.5378 11.6179 45.0469 11.6148 44.4941C11.5992 41.9324 11.5945 39.2831 11.6007 36.5461C11.6007 36.3588 11.5039 36.2652 11.3102 36.2652C8.43963 36.2682 5.73146 36.2667 3.18571 36.2607C1.3584 36.2607 -0.108136 34.7517 0.707127 32.9618C1.80664 30.533 2.94832 28.0544 4.13217 25.5259C5.15827 23.3282 5.03177 20.9311 3.7995 18.7697C1.93783 15.4981 0.694632 12.3715 0.0699098 9.38984C-0.214339 8.02439 0.368215 7.01995 1.81757 6.3765C3.49495 5.63638 5.26135 4.90683 7.11678 4.18786C7.32919 4.1048 7.5133 3.96613 7.64827 3.78754C7.78324 3.60896 7.86369 3.3976 7.8805 3.17737C7.97421 1.89954 7.77274 0.0416883 9.69844 0.0145003C11.3727 -0.00966685 12.9673 -0.00362508 14.4823 0.0326256C16.2908 0.0734076 16.0425 2.04001 16.0987 3.24081C16.1072 3.41609 16.1662 3.58545 16.2689 3.72963C16.3716 3.87382 16.5139 3.98705 16.6797 4.05645C18.457 4.79053 20.3078 5.55935 22.2319 6.3629C23.6844 6.96708 24.242 8.00929 23.9046 9.48953C23.0331 13.314 21.8337 15.6657 20.2547 18.7924C19.1396 20.9991 18.8678 23.0654 19.7861 25.1634C20.7107 27.2811 21.8915 29.8549 23.3283 32.8848C23.7375 33.7458 23.6672 34.5221 23.1175 35.2139C22.26 36.2969 21.1965 36.2878 19.8471 36.2788C17.4606 36.2576 15.0679 36.2576 12.669 36.2788C12.5003 36.2818 12.416 36.3649 12.416 36.528C12.4097 38.8783 12.4097 41.369 12.416 44.0002C12.416 44.698 12.6112 45.3264 13.0017 45.8852C14.7946 48.45 17.1998 49.5903 20.2172 49.3064C20.2515 49.3032 20.2861 49.307 20.3188 49.3177C20.3514 49.3284 20.3814 49.3457 20.4066 49.3683C20.4318 49.391 20.4518 49.4187 20.4652 49.4494C20.4786 49.4801 20.4851 49.5132 20.4843 49.5465L20.4796 49.6825C20.4733 49.8879 20.364 50.0027 20.1516 50.0269C17.2466 50.3289 14.8087 49.326 12.8377 47.0181C12.5659 46.7009 12.4285 46.7477 12.4254 47.1585L12.4019 50.7564C12.4019 50.7919 12.3937 50.8269 12.3779 50.8591C12.3622 50.8912 12.3393 50.9197 12.3107 50.9426C12.2822 50.9654 12.2488 50.9821 12.2127 50.9914C12.1767 51.0007 12.1389 51.0025 12.1021 50.9966L11.9568 50.9694C11.71 50.9271 11.5882 50.7866 11.5913 50.548L11.6007 47.2582C11.6038 46.9652 11.4976 46.9229 11.2821 47.1313ZM8.80353 1.6775C8.80821 2.92815 8.90661 4.28755 7.47755 4.8449C5.62838 5.56992 3.7995 6.34478 1.99093 7.16948C1.02886 7.60751 0.650902 8.29325 0.85706 9.22671C1.50052 12.1721 2.62815 15.0661 4.23993 17.9087C5.86109 20.7726 6.05787 23.3192 4.61008 26.3778C3.47152 28.7885 2.11744 31.3124 1.28812 33.7956C1.23968 33.9391 1.24466 34.0932 1.30217 34.2306C1.64577 35.0644 2.26893 35.4813 3.17166 35.4813C8.10696 35.4843 13.9731 35.4858 20.7701 35.4858C21.1543 35.4858 21.5135 35.4178 21.8477 35.2819C23.2815 34.7064 22.7614 33.4965 22.246 32.4181C21.0778 29.9591 19.9611 27.5288 18.8959 25.1272C17.9682 23.0337 18.4508 20.3104 19.669 18.1806C21.1371 15.6159 22.2882 12.8352 23.1222 9.83844C23.4173 8.76904 23.3705 7.73137 22.1663 7.2012C20.0235 6.26774 18.0229 5.41434 16.1643 4.64099C15.1054 4.20145 15.2788 2.43877 15.2319 1.5189C15.221 1.31657 15.1296 1.12616 14.9767 0.987619C14.8238 0.849074 14.6215 0.773149 14.412 0.775765L9.69376 0.807484C9.57623 0.808078 9.45998 0.831052 9.35164 0.875096C9.2433 0.91914 9.14499 0.983391 9.06232 1.06418C8.97966 1.14497 8.91426 1.24071 8.86985 1.34595C8.82545 1.45118 8.80291 1.56384 8.80353 1.6775Z" fill="white"/>
<path d="M12.1431 6.68148L11.8995 6.67983C11.7391 6.67874 11.6081 6.80433 11.607 6.96034L11.5944 8.70995C11.5933 8.86596 11.7224 8.99332 11.8829 8.99441L12.1265 8.99606C12.2869 8.99715 12.4179 8.87156 12.419 8.71555L12.4316 6.96594C12.4327 6.80993 12.3036 6.68257 12.1431 6.68148Z" fill="white"/>
<path d="M12.1553 11.511L11.8742 11.5095C11.7345 11.5088 11.6206 11.6184 11.6199 11.7543L11.6098 13.6224C11.6091 13.7583 11.7218 13.869 11.8615 13.8697L12.1426 13.8711C12.2824 13.8718 12.3962 13.7623 12.397 13.6264L12.407 11.7583C12.4078 11.6224 12.2951 11.5117 12.1553 11.511Z" fill="white"/>
<path d="M12.186 16.4237H11.8139C11.6712 16.4237 11.5555 16.538 11.5555 16.6789V18.7617C11.5555 18.9027 11.6712 19.0169 11.8139 19.0169H12.186C12.3287 19.0169 12.4444 18.9027 12.4444 18.7617V16.6789C12.4444 16.538 12.3287 16.4237 12.186 16.4237Z" fill="white"/>
<path d="M12.1368 21.1315L11.8369 21.1356C11.692 21.1376 11.5762 21.2534 11.5782 21.3943L11.6047 23.2349C11.6067 23.3758 11.7258 23.4884 11.8707 23.4865L12.1705 23.4824C12.3154 23.4804 12.4313 23.3646 12.4292 23.2237L12.4028 21.3831C12.4008 21.2422 12.2817 21.1296 12.1368 21.1315Z" fill="white"/>
<path d="M12.1547 25.9688L11.8923 25.9666C11.7423 25.9653 11.6195 26.0826 11.6182 26.2286L11.6019 28.051C11.6006 28.197 11.7212 28.3163 11.8713 28.3176L12.1336 28.3198C12.2837 28.3211 12.4064 28.2038 12.4077 28.0579L12.4241 26.2354C12.4254 26.0894 12.3048 25.9701 12.1547 25.9688Z" fill="white"/>
<path d="M12.1552 30.8028L11.8741 30.8014C11.7214 30.8006 11.597 30.9203 11.5962 31.0688L11.5865 32.864C11.5857 33.0125 11.7089 33.1334 11.8615 33.1342L12.1427 33.1357C12.2953 33.1364 12.4197 33.0167 12.4205 32.8682L12.4302 31.0731C12.431 30.9246 12.3079 30.8036 12.1552 30.8028Z" fill="white"/>
</svg>
